M48
;GenerationSoftware,Autodesk,EAGLE,9.6.2*%
;CreationDate,2023-01-06T22:30:02Z*%
FMAT,2
ICI,OFF
METRIC,TZ,000.000
T3C0.381
T2C0.457
T1C1.016
%
G90
M71
T1
X157480Y104902
X157480Y102362
X157480Y99822
X157480Y97282
X143002Y104902
X143002Y102362
X143002Y99822
X143002Y97282
X128524Y104902
X128524Y102362
X128524Y99822
X128524Y97282
X114046Y104902
X114046Y102362
X114046Y99822
X114046Y97282
X99568Y104902
X99568Y102362
X99568Y99822
X99568Y97282
X85090Y104902
X85090Y102362
X85090Y99822
X85090Y97282
X70612Y104902
X70612Y102362
X70612Y99822
X70612Y97282
X56134Y104902
X56134Y102362
X56134Y99822
X56134Y97282
X41656Y104902
X41656Y102362
X41656Y99822
X41656Y97282
X27178Y104902
X27178Y102362
X27178Y99822
X27178Y97282
X12700Y104902
X12700Y102362
X12700Y99822
X12700Y97282
X157480Y94234
X157480Y91694
X157480Y89154
X157480Y86614
X143002Y94234
X143002Y91694
X143002Y89154
X143002Y86614
X128524Y94234
X128524Y91694
X128524Y89154
X128524Y86614
X114046Y94234
X114046Y91694
X114046Y89154
X114046Y86614
X99568Y94234
X99568Y91694
X99568Y89154
X99568Y86614
X85090Y94234
X85090Y91694
X85090Y89154
X85090Y86614
X70612Y94234
X70612Y91694
X70612Y89154
X70612Y86614
X56134Y94234
X56134Y91694
X56134Y89154
X56134Y86614
X41656Y94234
X41656Y91694
X41656Y89154
X41656Y86614
X27178Y94234
X27178Y91694
X27178Y89154
X27178Y86614
X12700Y94234
X12700Y91694
X12700Y89154
X12700Y86614
X157480Y83566
X157480Y81026
X157480Y78486
X157480Y75946
X143002Y83566
X143002Y81026
X143002Y78486
X143002Y75946
X128524Y83566
X128524Y81026
X128524Y78486
X128524Y75946
X114046Y83566
X114046Y81026
X114046Y78486
X114046Y75946
X99568Y83566
X99568Y81026
X99568Y78486
X99568Y75946
X85090Y83566
X85090Y81026
X85090Y78486
X85090Y75946
X70612Y83566
X70612Y81026
X70612Y78486
X70612Y75946
X56134Y83566
X56134Y81026
X56134Y78486
X56134Y75946
X41656Y83566
X41656Y81026
X41656Y78486
X41656Y75946
X27178Y83566
X27178Y81026
X27178Y78486
X27178Y75946
X12700Y83566
X12700Y81026
X12700Y78486
X12700Y75946
X157480Y72898
X157480Y70358
X157480Y67818
X157480Y65278
X143002Y72898
X143002Y70358
X143002Y67818
X143002Y65278
X128524Y72898
X128524Y70358
X128524Y67818
X128524Y65278
X114046Y72898
X114046Y70358
X114046Y67818
X114046Y65278
X99568Y72898
X99568Y70358
X99568Y67818
X99568Y65278
X85090Y72898
X85090Y70358
X85090Y67818
X85090Y65278
X70612Y72898
X70612Y70358
X70612Y67818
X70612Y65278
X56134Y72898
X56134Y70358
X56134Y67818
X56134Y65278
X41656Y72898
X41656Y70358
X41656Y67818
X41656Y65278
X27178Y72898
X27178Y70358
X27178Y67818
X27178Y65278
X12700Y72898
X12700Y70358
X12700Y67818
X12700Y65278
X157480Y62230
X157480Y59690
X157480Y57150
X157480Y54610
X143002Y62230
X143002Y59690
X143002Y57150
X143002Y54610
X128524Y62230
X128524Y59690
X128524Y57150
X128524Y54610
X114046Y62230
X114046Y59690
X114046Y57150
X114046Y54610
X99568Y62230
X99568Y59690
X99568Y57150
X99568Y54610
X85090Y62230
X85090Y59690
X85090Y57150
X85090Y54610
X70612Y62230
X70612Y59690
X70612Y57150
X70612Y54610
X56134Y62230
X56134Y59690
X56134Y57150
X56134Y54610
X41656Y62230
X41656Y59690
X41656Y57150
X41656Y54610
X27178Y62230
X27178Y59690
X27178Y57150
X27178Y54610
X12700Y62230
X12700Y59690
X12700Y57150
X12700Y54610
X157480Y51562
X157480Y49022
X157480Y46482
X157480Y43942
X143002Y51562
X143002Y49022
X143002Y46482
X143002Y43942
X128524Y51562
X128524Y49022
X128524Y46482
X128524Y43942
X114046Y51562
X114046Y49022
X114046Y46482
X114046Y43942
X99568Y51562
X99568Y49022
X99568Y46482
X99568Y43942
X85090Y51562
X85090Y49022
X85090Y46482
X85090Y43942
X70612Y51562
X70612Y49022
X70612Y46482
X70612Y43942
X56134Y51562
X56134Y49022
X56134Y46482
X56134Y43942
X41656Y51562
X41656Y49022
X41656Y46482
X41656Y43942
X27178Y51562
X27178Y49022
X27178Y46482
X27178Y43942
X12700Y51562
X12700Y49022
X12700Y46482
X12700Y43942
X157480Y40894
X157480Y38354
X157480Y35814
X157480Y33274
X143002Y40894
X143002Y38354
X143002Y35814
X143002Y33274
X128524Y40894
X128524Y38354
X128524Y35814
X128524Y33274
X114046Y40894
X114046Y38354
X114046Y35814
X114046Y33274
X99568Y40894
X99568Y38354
X99568Y35814
X99568Y33274
X85090Y40894
X85090Y38354
X85090Y35814
X85090Y33274
X70612Y40894
X70612Y38354
X70612Y35814
X70612Y33274
X56134Y40894
X56134Y38354
X56134Y35814
X56134Y33274
X41656Y40894
X41656Y38354
X41656Y35814
X41656Y33274
X27178Y40894
X27178Y38354
X27178Y35814
X27178Y33274
X12700Y40894
X12700Y38354
X12700Y35814
X12700Y33274
X157480Y30226
X157480Y27686
X157480Y25146
X157480Y22606
X143002Y30226
X143002Y27686
X143002Y25146
X143002Y22606
X128524Y30226
X128524Y27686
X128524Y25146
X128524Y22606
X114046Y30226
X114046Y27686
X114046Y25146
X114046Y22606
X99568Y30226
X99568Y27686
X99568Y25146
X99568Y22606
X85090Y30226
X85090Y27686
X85090Y25146
X85090Y22606
X70612Y30226
X70612Y27686
X70612Y25146
X70612Y22606
X56134Y30226
X56134Y27686
X56134Y25146
X56134Y22606
X41656Y30226
X41656Y27686
X41656Y25146
X41656Y22606
X27178Y30226
X27178Y27686
X27178Y25146
X27178Y22606
X12700Y30226
X12700Y27686
X12700Y25146
X12700Y22606
X157480Y19558
X157480Y17018
X157480Y14478
X157480Y11938
X143002Y19558
X143002Y17018
X143002Y14478
X143002Y11938
X128524Y19558
X128524Y17018
X128524Y14478
X128524Y11938
X114046Y19558
X114046Y17018
X114046Y14478
X114046Y11938
X99568Y19558
X99568Y17018
X99568Y14478
X85090Y19558
X99568Y11938
X85090Y17018
X85090Y14478
X85090Y11938
X70612Y19558
X70612Y17018
X70612Y14478
X70612Y11938
X56134Y19558
X56134Y17018
X56134Y14478
X56134Y11938
X41656Y19558
X41656Y17018
X41656Y14478
X41656Y11938
X27178Y19558
X27178Y17018
X27178Y14478
X27178Y11938
X12700Y19558
X12700Y17018
X12700Y14478
X12700Y11938
X157480Y8890
X157480Y6350
X157480Y3810
X157480Y1270
X143002Y8890
X143002Y6350
X143002Y3810
X143002Y1270
X128524Y8890
X128524Y6350
X128524Y3810
X128524Y1270
X114046Y8890
X114046Y6350
X114046Y3810
X114046Y1270
X99568Y8890
X99568Y6350
X99568Y3810
X99568Y1270
X85090Y8890
X85090Y6350
X85090Y3810
X85090Y1270
X70612Y8890
X70612Y6350
X70612Y3810
X70612Y1270
X56134Y8890
X56134Y6350
X56134Y3810
X56134Y1270
X41656Y8890
X41656Y6350
X41656Y3810
X41656Y1270
X27178Y8890
X27178Y6350
X27178Y3810
X27178Y1270
X12700Y8890
X12700Y6350
X12700Y3810
X12700Y1270
T2
X2552Y5080
X17030Y5080
X31508Y5080
X45986Y5080
X60464Y5080
X74942Y5080
X89420Y5080
X103898Y5080
X118376Y5080
X132854Y5080
X147332Y5080
X2552Y15748
X17030Y15748
X31508Y15748
X45986Y15748
X60464Y15748
X74942Y15748
X89420Y15748
X103898Y15748
X118376Y15748
X132854Y15748
X147332Y15748
X2552Y26416
X17030Y26416
X31508Y26416
X45986Y26416
X60464Y26416
X74942Y26416
X89420Y26416
X103898Y26416
X118376Y26416
X132854Y26416
X147332Y26416
X2552Y37084
X17030Y37084
X31508Y37084
X45986Y37084
X60464Y37084
X74942Y37084
X89420Y37084
X103898Y37084
X118376Y37084
X132854Y37084
X147332Y37084
X2552Y47752
X17030Y47752
X31508Y47752
X45986Y47752
X60464Y47752
X74942Y47752
X89420Y47752
X103898Y47752
X118376Y47752
X132854Y47752
X147332Y47752
X2552Y58420
X17030Y58420
X31508Y58420
X45986Y58420
X60464Y58420
X74942Y58420
X89420Y58420
X103898Y58420
X118376Y58420
X132854Y58420
X147332Y58420
X2552Y69088
X17030Y69088
X31508Y69088
X45986Y69088
X60464Y69088
X74942Y69088
X89420Y69088
X103898Y69088
X118376Y69088
X132854Y69088
X147332Y69088
X2552Y79756
X17030Y79756
X31508Y79756
X45986Y79756
X60464Y79756
X74942Y79756
X89420Y79756
X103898Y79756
X118376Y79756
X132854Y79756
X147332Y79756
X2552Y90424
X17030Y90424
X31508Y90424
X45986Y90424
X60464Y90424
X74942Y90424
X89420Y90424
X103898Y90424
X118376Y90424
X132854Y90424
X147332Y90424
X2552Y101092
X17030Y101092
X31508Y101092
X45986Y101092
X60464Y101092
X74942Y101092
X89420Y101092
X103898Y101092
X118376Y101092
X132854Y101092
X147332Y101092
T3
X145760Y102939
X154940Y101092
X154940Y103632
X145870Y99205
X131282Y102939
X140462Y101092
X140462Y103632
X131392Y99205
X116804Y102939
X125984Y101092
X125984Y103632
X116914Y99205
X102326Y102939
X111506Y101092
X111506Y103632
X102436Y99205
X87848Y102939
X97028Y101092
X97028Y103632
X87958Y99205
X73370Y102939
X82550Y101092
X82550Y103632
X73480Y99205
X58892Y102939
X68072Y101092
X68072Y103632
X59002Y99205
X44414Y102939
X53594Y101092
X53594Y103632
X44524Y99205
X29936Y102939
X39116Y101092
X39116Y103632
X30046Y99205
X15458Y102939
X24638Y101092
X24638Y103632
X15568Y99205
X980Y102939
X10160Y101092
X10160Y103632
X1090Y99205
X145760Y92271
X154940Y90424
X154940Y92964
X145870Y88537
X131282Y92271
X140462Y90424
X140462Y92964
X131392Y88537
X116804Y92271
X125984Y90424
X125984Y92964
X116914Y88537
X102326Y92271
X111506Y90424
X111506Y92964
X102436Y88537
X87848Y92271
X97028Y90424
X97028Y92964
X87958Y88537
X73370Y92271
X82550Y90424
X82550Y92964
X58892Y92271
X73480Y88537
X68072Y90424
X68072Y92964
X59002Y88537
X44414Y92271
X53594Y90424
X53594Y92964
X44524Y88537
X29936Y92271
X39116Y90424
X39116Y92964
X30046Y88537
X15458Y92271
X24638Y90424
X24638Y92964
X15568Y88537
X980Y92271
X10160Y90424
X10160Y92964
X1090Y88537
X145760Y81603
X154940Y79756
X154940Y82296
X145870Y77869
X131282Y81603
X140462Y79756
X140462Y82296
X131392Y77869
X116804Y81603
X125984Y79756
X125984Y82296
X116914Y77869
X102326Y81603
X111506Y79756
X111506Y82296
X102436Y77869
X87848Y81603
X97028Y79756
X97028Y82296
X87958Y77869
X73370Y81603
X82550Y79756
X82550Y82296
X73480Y77869
X58892Y81603
X68072Y79756
X68072Y82296
X59002Y77869
X44414Y81603
X53594Y79756
X53594Y82296
X44524Y77869
X29936Y81603
X39116Y79756
X39116Y82296
X30046Y77869
X15458Y81603
X24638Y79756
X24638Y82296
X15568Y77869
X980Y81603
X10160Y79756
X10160Y82296
X1090Y77869
X145760Y70935
X154940Y69088
X154940Y71628
X145870Y67201
X131282Y70935
X140462Y69088
X140462Y71628
X131392Y67201
X116804Y70935
X125984Y69088
X125984Y71628
X116914Y67201
X102326Y70935
X111506Y69088
X111506Y71628
X102436Y67201
X87848Y70935
X97028Y69088
X97028Y71628
X87958Y67201
X73370Y70935
X82550Y69088
X82550Y71628
X73480Y67201
X58892Y70935
X68072Y69088
X68072Y71628
X59002Y67201
X44414Y70935
X53594Y69088
X53594Y71628
X44524Y67201
X29936Y70935
X39116Y69088
X39116Y71628
X30046Y67201
X15458Y70935
X24638Y69088
X24638Y71628
X15568Y67201
X980Y70935
X10160Y69088
X10160Y71628
X1090Y67201
X145760Y60267
X154940Y58420
X154940Y60960
X145870Y56533
X131282Y60267
X140462Y58420
X140462Y60960
X131392Y56533
X116804Y60267
X125984Y58420
X125984Y60960
X116914Y56533
X102326Y60267
X111506Y58420
X111506Y60960
X102436Y56533
X87848Y60267
X97028Y58420
X97028Y60960
X87958Y56533
X73370Y60267
X82550Y58420
X82550Y60960
X73480Y56533
X58892Y60267
X68072Y58420
X68072Y60960
X59002Y56533
X44414Y60267
X53594Y58420
X53594Y60960
X44524Y56533
X29936Y60267
X39116Y58420
X39116Y60960
X30046Y56533
X15458Y60267
X24638Y58420
X24638Y60960
X15568Y56533
X980Y60267
X10160Y58420
X10160Y60960
X1090Y56533
X145760Y49599
X154940Y47752
X154940Y50292
X145870Y45865
X131282Y49599
X140462Y47752
X140462Y50292
X131392Y45865
X116804Y49599
X125984Y47752
X125984Y50292
X116914Y45865
X102326Y49599
X111506Y47752
X111506Y50292
X102436Y45865
X87848Y49599
X97028Y47752
X97028Y50292
X87958Y45865
X73370Y49599
X82550Y47752
X82550Y50292
X73480Y45865
X58892Y49599
X68072Y47752
X68072Y50292
X59002Y45865
X44414Y49599
X53594Y47752
X53594Y50292
X44524Y45865
X29936Y49599
X39116Y47752
X39116Y50292
X30046Y45865
X15458Y49599
X24638Y47752
X24638Y50292
X15568Y45865
X980Y49599
X10160Y47752
X10160Y50292
X1090Y45865
X145760Y38931
X154940Y37084
X154940Y39624
X145870Y35197
X131282Y38931
X140462Y37084
X140462Y39624
X131392Y35197
X116804Y38931
X125984Y37084
X125984Y39624
X116914Y35197
X102326Y38931
X111506Y37084
X111506Y39624
X102436Y35197
X87848Y38931
X97028Y37084
X97028Y39624
X87958Y35197
X73370Y38931
X82550Y37084
X82550Y39624
X73480Y35197
X58892Y38931
X68072Y37084
X68072Y39624
X59002Y35197
X44414Y38931
X53594Y37084
X53594Y39624
X44524Y35197
X29936Y38931
X39116Y37084
X39116Y39624
X30046Y35197
X15458Y38931
X24638Y37084
X24638Y39624
X15568Y35197
X980Y38931
X10160Y37084
X10160Y39624
X1090Y35197
X145760Y28263
X154940Y26416
X154940Y28956
X145870Y24529
X131282Y28263
X140462Y26416
X140462Y28956
X131392Y24529
X116804Y28263
X125984Y26416
X125984Y28956
X116914Y24529
X102326Y28263
X111506Y26416
X111506Y28956
X102436Y24529
X87848Y28263
X97028Y26416
X97028Y28956
X87958Y24529
X73370Y28263
X82550Y26416
X82550Y28956
X73480Y24529
X58892Y28263
X68072Y26416
X68072Y28956
X59002Y24529
X44414Y28263
X53594Y26416
X53594Y28956
X44524Y24529
X29936Y28263
X39116Y26416
X39116Y28956
X30046Y24529
X15458Y28263
X24638Y26416
X24638Y28956
X15568Y24529
X980Y28263
X10160Y26416
X10160Y28956
X1090Y24529
X145760Y17595
X154940Y15748
X154940Y18288
X145870Y13861
X131282Y17595
X140462Y15748
X140462Y18288
X131392Y13861
X116804Y17595
X125984Y15748
X125984Y18288
X116914Y13861
X102326Y17595
X111506Y15748
X111506Y18288
X102436Y13861
X87848Y17595
X97028Y15748
X97028Y18288
X87958Y13861
X73370Y17595
X82550Y15748
X82550Y18288
X73480Y13861
X58892Y17595
X68072Y15748
X68072Y18288
X59002Y13861
X44414Y17595
X53594Y15748
X53594Y18288
X44524Y13861
X29936Y17595
X39116Y15748
X39116Y18288
X30046Y13861
X15458Y17595
X24638Y15748
X24638Y18288
X15568Y13861
X980Y17595
X10160Y15748
X10160Y18288
X1090Y13861
X145760Y6927
X154940Y5080
X154940Y7620
X145870Y3193
X131282Y6927
X140462Y5080
X140462Y7620
X131392Y3193
X116804Y6927
X125984Y5080
X125984Y7620
X116914Y3193
X102326Y6927
X111506Y5080
X111506Y7620
X102436Y3193
X87848Y6927
X97028Y5080
X97028Y7620
X87958Y3193
X73370Y6927
X82550Y5080
X82550Y7620
X73480Y3193
X58892Y6927
X68072Y5080
X68072Y7620
X59002Y3193
X44414Y6927
X53594Y5080
X53594Y7620
X44524Y3193
X29936Y6927
X39116Y5080
X39116Y7620
X30046Y3193
X15458Y6927
X24638Y5080
X24638Y7620
X15568Y3193
X980Y6927
X10160Y5080
X10160Y7620
X1090Y3193
M30