G04 EAGLE Gerber RS-274X export*
G75*
%MOMM*%
%FSLAX34Y34*%
%LPD*%
%INSoldermask Bottom*%
%IPPOS*%
%AMOC8*
5,1,8,0,0,1.08239X$1,22.5*%
G01*
%ADD10C,0.762000*%
%ADD11C,0.584200*%
%ADD12C,2.006600*%
%ADD13C,1.127000*%
%ADD14C,1.270000*%
%ADD15C,1.627000*%


D10*
X114300Y76200D03*
X6096Y6350D03*
D11*
X25520Y50800D03*
D12*
X127000Y12700D03*
X127000Y38100D03*
X127000Y63500D03*
X127000Y88900D03*
D10*
X259080Y76200D03*
X150876Y6350D03*
D11*
X170300Y50800D03*
D12*
X271780Y12700D03*
X271780Y38100D03*
X271780Y63500D03*
X271780Y88900D03*
D10*
X403860Y76200D03*
X295656Y6350D03*
D11*
X315080Y50800D03*
D12*
X416560Y12700D03*
X416560Y38100D03*
X416560Y63500D03*
X416560Y88900D03*
D10*
X548640Y76200D03*
X440436Y6350D03*
D11*
X459860Y50800D03*
D12*
X561340Y12700D03*
X561340Y38100D03*
X561340Y63500D03*
X561340Y88900D03*
D10*
X693420Y76200D03*
X585216Y6350D03*
D11*
X604640Y50800D03*
D12*
X706120Y12700D03*
X706120Y38100D03*
X706120Y63500D03*
X706120Y88900D03*
D10*
X838200Y76200D03*
X729996Y6350D03*
D11*
X749420Y50800D03*
D12*
X850900Y12700D03*
X850900Y38100D03*
X850900Y63500D03*
X850900Y88900D03*
D10*
X982980Y76200D03*
X874776Y6350D03*
D11*
X894200Y50800D03*
D12*
X995680Y12700D03*
X995680Y38100D03*
X995680Y63500D03*
X995680Y88900D03*
D10*
X1127760Y76200D03*
X1019556Y6350D03*
D11*
X1038980Y50800D03*
D12*
X1140460Y12700D03*
X1140460Y38100D03*
X1140460Y63500D03*
X1140460Y88900D03*
D10*
X1272540Y76200D03*
X1164336Y6350D03*
D11*
X1183760Y50800D03*
D12*
X1285240Y12700D03*
X1285240Y38100D03*
X1285240Y63500D03*
X1285240Y88900D03*
D10*
X1417320Y76200D03*
X1309116Y6350D03*
D11*
X1328540Y50800D03*
D12*
X1430020Y12700D03*
X1430020Y38100D03*
X1430020Y63500D03*
X1430020Y88900D03*
D10*
X1562100Y76200D03*
X1453896Y6350D03*
D11*
X1473320Y50800D03*
D12*
X1574800Y12700D03*
X1574800Y38100D03*
X1574800Y63500D03*
X1574800Y88900D03*
D10*
X114300Y182880D03*
X6096Y113030D03*
D11*
X25520Y157480D03*
D12*
X127000Y119380D03*
X127000Y144780D03*
X127000Y170180D03*
X127000Y195580D03*
D10*
X259080Y182880D03*
X150876Y113030D03*
D11*
X170300Y157480D03*
D12*
X271780Y119380D03*
X271780Y144780D03*
X271780Y170180D03*
X271780Y195580D03*
D10*
X403860Y182880D03*
X295656Y113030D03*
D11*
X315080Y157480D03*
D12*
X416560Y119380D03*
X416560Y144780D03*
X416560Y170180D03*
X416560Y195580D03*
D10*
X548640Y182880D03*
X440436Y113030D03*
D11*
X459860Y157480D03*
D12*
X561340Y119380D03*
X561340Y144780D03*
X561340Y170180D03*
X561340Y195580D03*
D10*
X693420Y182880D03*
X585216Y113030D03*
D11*
X604640Y157480D03*
D12*
X706120Y119380D03*
X706120Y144780D03*
X706120Y170180D03*
X706120Y195580D03*
D10*
X838200Y182880D03*
X729996Y113030D03*
D11*
X749420Y157480D03*
D12*
X850900Y119380D03*
X850900Y144780D03*
X850900Y170180D03*
X850900Y195580D03*
D10*
X982980Y182880D03*
X874776Y113030D03*
D11*
X894200Y157480D03*
D12*
X995680Y119380D03*
X995680Y144780D03*
X995680Y170180D03*
X995680Y195580D03*
D10*
X1127760Y182880D03*
X1019556Y113030D03*
D11*
X1038980Y157480D03*
D12*
X1140460Y119380D03*
X1140460Y144780D03*
X1140460Y170180D03*
X1140460Y195580D03*
D10*
X1272540Y182880D03*
X1164336Y113030D03*
D11*
X1183760Y157480D03*
D12*
X1285240Y119380D03*
X1285240Y144780D03*
X1285240Y170180D03*
X1285240Y195580D03*
D10*
X1417320Y182880D03*
X1309116Y113030D03*
D11*
X1328540Y157480D03*
D12*
X1430020Y119380D03*
X1430020Y144780D03*
X1430020Y170180D03*
X1430020Y195580D03*
D10*
X1562100Y182880D03*
X1453896Y113030D03*
D11*
X1473320Y157480D03*
D12*
X1574800Y119380D03*
X1574800Y144780D03*
X1574800Y170180D03*
X1574800Y195580D03*
D10*
X114300Y289560D03*
X6096Y219710D03*
D11*
X25520Y264160D03*
D12*
X127000Y226060D03*
X127000Y251460D03*
X127000Y276860D03*
X127000Y302260D03*
D10*
X259080Y289560D03*
X150876Y219710D03*
D11*
X170300Y264160D03*
D12*
X271780Y226060D03*
X271780Y251460D03*
X271780Y276860D03*
X271780Y302260D03*
D10*
X403860Y289560D03*
X295656Y219710D03*
D11*
X315080Y264160D03*
D12*
X416560Y226060D03*
X416560Y251460D03*
X416560Y276860D03*
X416560Y302260D03*
D10*
X548640Y289560D03*
X440436Y219710D03*
D11*
X459860Y264160D03*
D12*
X561340Y226060D03*
X561340Y251460D03*
X561340Y276860D03*
X561340Y302260D03*
D10*
X693420Y289560D03*
X585216Y219710D03*
D11*
X604640Y264160D03*
D12*
X706120Y226060D03*
X706120Y251460D03*
X706120Y276860D03*
X706120Y302260D03*
D10*
X838200Y289560D03*
X729996Y219710D03*
D11*
X749420Y264160D03*
D12*
X850900Y226060D03*
X850900Y251460D03*
X850900Y276860D03*
X850900Y302260D03*
D10*
X982980Y289560D03*
X874776Y219710D03*
D11*
X894200Y264160D03*
D12*
X995680Y226060D03*
X995680Y251460D03*
X995680Y276860D03*
X995680Y302260D03*
D10*
X1127760Y289560D03*
X1019556Y219710D03*
D11*
X1038980Y264160D03*
D12*
X1140460Y226060D03*
X1140460Y251460D03*
X1140460Y276860D03*
X1140460Y302260D03*
D10*
X1272540Y289560D03*
X1164336Y219710D03*
D11*
X1183760Y264160D03*
D12*
X1285240Y226060D03*
X1285240Y251460D03*
X1285240Y276860D03*
X1285240Y302260D03*
D10*
X1417320Y289560D03*
X1309116Y219710D03*
D11*
X1328540Y264160D03*
D12*
X1430020Y226060D03*
X1430020Y251460D03*
X1430020Y276860D03*
X1430020Y302260D03*
D10*
X1562100Y289560D03*
X1453896Y219710D03*
D11*
X1473320Y264160D03*
D12*
X1574800Y226060D03*
X1574800Y251460D03*
X1574800Y276860D03*
X1574800Y302260D03*
D10*
X114300Y396240D03*
X6096Y326390D03*
D11*
X25520Y370840D03*
D12*
X127000Y332740D03*
X127000Y358140D03*
X127000Y383540D03*
X127000Y408940D03*
D10*
X259080Y396240D03*
X150876Y326390D03*
D11*
X170300Y370840D03*
D12*
X271780Y332740D03*
X271780Y358140D03*
X271780Y383540D03*
X271780Y408940D03*
D10*
X403860Y396240D03*
X295656Y326390D03*
D11*
X315080Y370840D03*
D12*
X416560Y332740D03*
X416560Y358140D03*
X416560Y383540D03*
X416560Y408940D03*
D10*
X548640Y396240D03*
X440436Y326390D03*
D11*
X459860Y370840D03*
D12*
X561340Y332740D03*
X561340Y358140D03*
X561340Y383540D03*
X561340Y408940D03*
D10*
X693420Y396240D03*
X585216Y326390D03*
D11*
X604640Y370840D03*
D12*
X706120Y332740D03*
X706120Y358140D03*
X706120Y383540D03*
X706120Y408940D03*
D10*
X838200Y396240D03*
X729996Y326390D03*
D11*
X749420Y370840D03*
D12*
X850900Y332740D03*
X850900Y358140D03*
X850900Y383540D03*
X850900Y408940D03*
D10*
X982980Y396240D03*
X874776Y326390D03*
D11*
X894200Y370840D03*
D12*
X995680Y332740D03*
X995680Y358140D03*
X995680Y383540D03*
X995680Y408940D03*
D10*
X1127760Y396240D03*
X1019556Y326390D03*
D11*
X1038980Y370840D03*
D12*
X1140460Y332740D03*
X1140460Y358140D03*
X1140460Y383540D03*
X1140460Y408940D03*
D10*
X1272540Y396240D03*
X1164336Y326390D03*
D11*
X1183760Y370840D03*
D12*
X1285240Y332740D03*
X1285240Y358140D03*
X1285240Y383540D03*
X1285240Y408940D03*
D10*
X1417320Y396240D03*
X1309116Y326390D03*
D11*
X1328540Y370840D03*
D12*
X1430020Y332740D03*
X1430020Y358140D03*
X1430020Y383540D03*
X1430020Y408940D03*
D10*
X1562100Y396240D03*
X1453896Y326390D03*
D11*
X1473320Y370840D03*
D12*
X1574800Y332740D03*
X1574800Y358140D03*
X1574800Y383540D03*
X1574800Y408940D03*
D10*
X114300Y502920D03*
X6096Y433070D03*
D11*
X25520Y477520D03*
D12*
X127000Y439420D03*
X127000Y464820D03*
X127000Y490220D03*
X127000Y515620D03*
D10*
X259080Y502920D03*
X150876Y433070D03*
D11*
X170300Y477520D03*
D12*
X271780Y439420D03*
X271780Y464820D03*
X271780Y490220D03*
X271780Y515620D03*
D10*
X403860Y502920D03*
X295656Y433070D03*
D11*
X315080Y477520D03*
D12*
X416560Y439420D03*
X416560Y464820D03*
X416560Y490220D03*
X416560Y515620D03*
D10*
X548640Y502920D03*
X440436Y433070D03*
D11*
X459860Y477520D03*
D12*
X561340Y439420D03*
X561340Y464820D03*
X561340Y490220D03*
X561340Y515620D03*
D10*
X693420Y502920D03*
X585216Y433070D03*
D11*
X604640Y477520D03*
D12*
X706120Y439420D03*
X706120Y464820D03*
X706120Y490220D03*
X706120Y515620D03*
D10*
X838200Y502920D03*
X729996Y433070D03*
D11*
X749420Y477520D03*
D12*
X850900Y439420D03*
X850900Y464820D03*
X850900Y490220D03*
X850900Y515620D03*
D10*
X982980Y502920D03*
X874776Y433070D03*
D11*
X894200Y477520D03*
D12*
X995680Y439420D03*
X995680Y464820D03*
X995680Y490220D03*
X995680Y515620D03*
D10*
X1127760Y502920D03*
X1019556Y433070D03*
D11*
X1038980Y477520D03*
D12*
X1140460Y439420D03*
X1140460Y464820D03*
X1140460Y490220D03*
X1140460Y515620D03*
D10*
X1272540Y502920D03*
X1164336Y433070D03*
D11*
X1183760Y477520D03*
D12*
X1285240Y439420D03*
X1285240Y464820D03*
X1285240Y490220D03*
X1285240Y515620D03*
D10*
X1417320Y502920D03*
X1309116Y433070D03*
D11*
X1328540Y477520D03*
D12*
X1430020Y439420D03*
X1430020Y464820D03*
X1430020Y490220D03*
X1430020Y515620D03*
D10*
X1562100Y502920D03*
X1453896Y433070D03*
D11*
X1473320Y477520D03*
D12*
X1574800Y439420D03*
X1574800Y464820D03*
X1574800Y490220D03*
X1574800Y515620D03*
D10*
X114300Y609600D03*
X6096Y539750D03*
D11*
X25520Y584200D03*
D12*
X127000Y546100D03*
X127000Y571500D03*
X127000Y596900D03*
X127000Y622300D03*
D10*
X259080Y609600D03*
X150876Y539750D03*
D11*
X170300Y584200D03*
D12*
X271780Y546100D03*
X271780Y571500D03*
X271780Y596900D03*
X271780Y622300D03*
D10*
X403860Y609600D03*
X295656Y539750D03*
D11*
X315080Y584200D03*
D12*
X416560Y546100D03*
X416560Y571500D03*
X416560Y596900D03*
X416560Y622300D03*
D10*
X548640Y609600D03*
X440436Y539750D03*
D11*
X459860Y584200D03*
D12*
X561340Y546100D03*
X561340Y571500D03*
X561340Y596900D03*
X561340Y622300D03*
D10*
X693420Y609600D03*
X585216Y539750D03*
D11*
X604640Y584200D03*
D12*
X706120Y546100D03*
X706120Y571500D03*
X706120Y596900D03*
X706120Y622300D03*
D10*
X838200Y609600D03*
X729996Y539750D03*
D11*
X749420Y584200D03*
D12*
X850900Y546100D03*
X850900Y571500D03*
X850900Y596900D03*
X850900Y622300D03*
D10*
X982980Y609600D03*
X874776Y539750D03*
D11*
X894200Y584200D03*
D12*
X995680Y546100D03*
X995680Y571500D03*
X995680Y596900D03*
X995680Y622300D03*
D10*
X1127760Y609600D03*
X1019556Y539750D03*
D11*
X1038980Y584200D03*
D12*
X1140460Y546100D03*
X1140460Y571500D03*
X1140460Y596900D03*
X1140460Y622300D03*
D10*
X1272540Y609600D03*
X1164336Y539750D03*
D11*
X1183760Y584200D03*
D12*
X1285240Y546100D03*
X1285240Y571500D03*
X1285240Y596900D03*
X1285240Y622300D03*
D10*
X1417320Y609600D03*
X1309116Y539750D03*
D11*
X1328540Y584200D03*
D12*
X1430020Y546100D03*
X1430020Y571500D03*
X1430020Y596900D03*
X1430020Y622300D03*
D10*
X1562100Y609600D03*
X1453896Y539750D03*
D11*
X1473320Y584200D03*
D12*
X1574800Y546100D03*
X1574800Y571500D03*
X1574800Y596900D03*
X1574800Y622300D03*
D10*
X114300Y716280D03*
X6096Y646430D03*
D11*
X25520Y690880D03*
D12*
X127000Y652780D03*
X127000Y678180D03*
X127000Y703580D03*
X127000Y728980D03*
D10*
X259080Y716280D03*
X150876Y646430D03*
D11*
X170300Y690880D03*
D12*
X271780Y652780D03*
X271780Y678180D03*
X271780Y703580D03*
X271780Y728980D03*
D10*
X403860Y716280D03*
X295656Y646430D03*
D11*
X315080Y690880D03*
D12*
X416560Y652780D03*
X416560Y678180D03*
X416560Y703580D03*
X416560Y728980D03*
D10*
X548640Y716280D03*
X440436Y646430D03*
D11*
X459860Y690880D03*
D12*
X561340Y652780D03*
X561340Y678180D03*
X561340Y703580D03*
X561340Y728980D03*
D10*
X693420Y716280D03*
X585216Y646430D03*
D11*
X604640Y690880D03*
D12*
X706120Y652780D03*
X706120Y678180D03*
X706120Y703580D03*
X706120Y728980D03*
D10*
X838200Y716280D03*
X729996Y646430D03*
D11*
X749420Y690880D03*
D12*
X850900Y652780D03*
X850900Y678180D03*
X850900Y703580D03*
X850900Y728980D03*
D10*
X982980Y716280D03*
X874776Y646430D03*
D11*
X894200Y690880D03*
D12*
X995680Y652780D03*
X995680Y678180D03*
X995680Y703580D03*
X995680Y728980D03*
D10*
X1127760Y716280D03*
X1019556Y646430D03*
D11*
X1038980Y690880D03*
D12*
X1140460Y652780D03*
X1140460Y678180D03*
X1140460Y703580D03*
X1140460Y728980D03*
D10*
X1272540Y716280D03*
X1164336Y646430D03*
D11*
X1183760Y690880D03*
D12*
X1285240Y652780D03*
X1285240Y678180D03*
X1285240Y703580D03*
X1285240Y728980D03*
D10*
X1417320Y716280D03*
X1309116Y646430D03*
D11*
X1328540Y690880D03*
D12*
X1430020Y652780D03*
X1430020Y678180D03*
X1430020Y703580D03*
X1430020Y728980D03*
D10*
X1562100Y716280D03*
X1453896Y646430D03*
D11*
X1473320Y690880D03*
D12*
X1574800Y652780D03*
X1574800Y678180D03*
X1574800Y703580D03*
X1574800Y728980D03*
D10*
X114300Y822960D03*
X6096Y753110D03*
D11*
X25520Y797560D03*
D12*
X127000Y759460D03*
X127000Y784860D03*
X127000Y810260D03*
X127000Y835660D03*
D10*
X259080Y822960D03*
X150876Y753110D03*
D11*
X170300Y797560D03*
D12*
X271780Y759460D03*
X271780Y784860D03*
X271780Y810260D03*
X271780Y835660D03*
D10*
X403860Y822960D03*
X295656Y753110D03*
D11*
X315080Y797560D03*
D12*
X416560Y759460D03*
X416560Y784860D03*
X416560Y810260D03*
X416560Y835660D03*
D10*
X548640Y822960D03*
X440436Y753110D03*
D11*
X459860Y797560D03*
D12*
X561340Y759460D03*
X561340Y784860D03*
X561340Y810260D03*
X561340Y835660D03*
D10*
X693420Y822960D03*
X585216Y753110D03*
D11*
X604640Y797560D03*
D12*
X706120Y759460D03*
X706120Y784860D03*
X706120Y810260D03*
X706120Y835660D03*
D10*
X838200Y822960D03*
X729996Y753110D03*
D11*
X749420Y797560D03*
D12*
X850900Y759460D03*
X850900Y784860D03*
X850900Y810260D03*
X850900Y835660D03*
D10*
X982980Y822960D03*
X874776Y753110D03*
D11*
X894200Y797560D03*
D12*
X995680Y759460D03*
X995680Y784860D03*
X995680Y810260D03*
X995680Y835660D03*
D10*
X1127760Y822960D03*
X1019556Y753110D03*
D11*
X1038980Y797560D03*
D12*
X1140460Y759460D03*
X1140460Y784860D03*
X1140460Y810260D03*
X1140460Y835660D03*
D10*
X1272540Y822960D03*
X1164336Y753110D03*
D11*
X1183760Y797560D03*
D12*
X1285240Y759460D03*
X1285240Y784860D03*
X1285240Y810260D03*
X1285240Y835660D03*
D10*
X1417320Y822960D03*
X1309116Y753110D03*
D11*
X1328540Y797560D03*
D12*
X1430020Y759460D03*
X1430020Y784860D03*
X1430020Y810260D03*
X1430020Y835660D03*
D10*
X1562100Y822960D03*
X1453896Y753110D03*
D11*
X1473320Y797560D03*
D12*
X1574800Y759460D03*
X1574800Y784860D03*
X1574800Y810260D03*
X1574800Y835660D03*
D10*
X114300Y929640D03*
X6096Y859790D03*
D11*
X25520Y904240D03*
D12*
X127000Y866140D03*
X127000Y891540D03*
X127000Y916940D03*
X127000Y942340D03*
D10*
X259080Y929640D03*
X150876Y859790D03*
D11*
X170300Y904240D03*
D12*
X271780Y866140D03*
X271780Y891540D03*
X271780Y916940D03*
X271780Y942340D03*
D10*
X403860Y929640D03*
X295656Y859790D03*
D11*
X315080Y904240D03*
D12*
X416560Y866140D03*
X416560Y891540D03*
X416560Y916940D03*
X416560Y942340D03*
D10*
X548640Y929640D03*
X440436Y859790D03*
D11*
X459860Y904240D03*
D12*
X561340Y866140D03*
X561340Y891540D03*
X561340Y916940D03*
X561340Y942340D03*
D10*
X693420Y929640D03*
X585216Y859790D03*
D11*
X604640Y904240D03*
D12*
X706120Y866140D03*
X706120Y891540D03*
X706120Y916940D03*
X706120Y942340D03*
D10*
X838200Y929640D03*
X729996Y859790D03*
D11*
X749420Y904240D03*
D12*
X850900Y866140D03*
X850900Y891540D03*
X850900Y916940D03*
X850900Y942340D03*
D10*
X982980Y929640D03*
X874776Y859790D03*
D11*
X894200Y904240D03*
D12*
X995680Y866140D03*
X995680Y891540D03*
X995680Y916940D03*
X995680Y942340D03*
D10*
X1127760Y929640D03*
X1019556Y859790D03*
D11*
X1038980Y904240D03*
D12*
X1140460Y866140D03*
X1140460Y891540D03*
X1140460Y916940D03*
X1140460Y942340D03*
D10*
X1272540Y929640D03*
X1164336Y859790D03*
D11*
X1183760Y904240D03*
D12*
X1285240Y866140D03*
X1285240Y891540D03*
X1285240Y916940D03*
X1285240Y942340D03*
D10*
X1417320Y929640D03*
X1309116Y859790D03*
D11*
X1328540Y904240D03*
D12*
X1430020Y866140D03*
X1430020Y891540D03*
X1430020Y916940D03*
X1430020Y942340D03*
D10*
X1562100Y929640D03*
X1453896Y859790D03*
D11*
X1473320Y904240D03*
D12*
X1574800Y866140D03*
X1574800Y891540D03*
X1574800Y916940D03*
X1574800Y942340D03*
D10*
X114300Y1036320D03*
X6096Y966470D03*
D11*
X25520Y1010920D03*
D12*
X127000Y972820D03*
X127000Y998220D03*
X127000Y1023620D03*
X127000Y1049020D03*
D10*
X259080Y1036320D03*
X150876Y966470D03*
D11*
X170300Y1010920D03*
D12*
X271780Y972820D03*
X271780Y998220D03*
X271780Y1023620D03*
X271780Y1049020D03*
D10*
X403860Y1036320D03*
X295656Y966470D03*
D11*
X315080Y1010920D03*
D12*
X416560Y972820D03*
X416560Y998220D03*
X416560Y1023620D03*
X416560Y1049020D03*
D10*
X548640Y1036320D03*
X440436Y966470D03*
D11*
X459860Y1010920D03*
D12*
X561340Y972820D03*
X561340Y998220D03*
X561340Y1023620D03*
X561340Y1049020D03*
D10*
X693420Y1036320D03*
X585216Y966470D03*
D11*
X604640Y1010920D03*
D12*
X706120Y972820D03*
X706120Y998220D03*
X706120Y1023620D03*
X706120Y1049020D03*
D10*
X838200Y1036320D03*
X729996Y966470D03*
D11*
X749420Y1010920D03*
D12*
X850900Y972820D03*
X850900Y998220D03*
X850900Y1023620D03*
X850900Y1049020D03*
D10*
X982980Y1036320D03*
X874776Y966470D03*
D11*
X894200Y1010920D03*
D12*
X995680Y972820D03*
X995680Y998220D03*
X995680Y1023620D03*
X995680Y1049020D03*
D10*
X1127760Y1036320D03*
X1019556Y966470D03*
D11*
X1038980Y1010920D03*
D12*
X1140460Y972820D03*
X1140460Y998220D03*
X1140460Y1023620D03*
X1140460Y1049020D03*
D10*
X1272540Y1036320D03*
X1164336Y966470D03*
D11*
X1183760Y1010920D03*
D12*
X1285240Y972820D03*
X1285240Y998220D03*
X1285240Y1023620D03*
X1285240Y1049020D03*
D10*
X1417320Y1036320D03*
X1309116Y966470D03*
D11*
X1328540Y1010920D03*
D12*
X1430020Y972820D03*
X1430020Y998220D03*
X1430020Y1023620D03*
X1430020Y1049020D03*
D10*
X1562100Y1036320D03*
X1453896Y966470D03*
D11*
X1473320Y1010920D03*
D12*
X1574800Y972820D03*
X1574800Y998220D03*
X1574800Y1023620D03*
X1574800Y1049020D03*
D13*
X68580Y1082675D03*
X1518285Y1082675D03*
D14*
X59525Y-20955D02*
X59528Y-20733D01*
X59536Y-20511D01*
X59550Y-20289D01*
X59569Y-20067D01*
X59593Y-19847D01*
X59623Y-19626D01*
X59658Y-19407D01*
X59699Y-19188D01*
X59745Y-18971D01*
X59796Y-18755D01*
X59853Y-18540D01*
X59915Y-18326D01*
X59982Y-18115D01*
X60054Y-17904D01*
X60132Y-17696D01*
X60214Y-17490D01*
X60302Y-17286D01*
X60394Y-17083D01*
X60492Y-16884D01*
X60594Y-16687D01*
X60701Y-16492D01*
X60813Y-16300D01*
X60930Y-16111D01*
X61051Y-15924D01*
X61177Y-15741D01*
X61307Y-15561D01*
X61442Y-15384D01*
X61580Y-15211D01*
X61723Y-15041D01*
X61871Y-14874D01*
X62022Y-14711D01*
X62177Y-14552D01*
X62336Y-14397D01*
X62499Y-14246D01*
X62666Y-14098D01*
X62836Y-13955D01*
X63009Y-13817D01*
X63186Y-13682D01*
X63366Y-13552D01*
X63549Y-13426D01*
X63736Y-13305D01*
X63925Y-13188D01*
X64117Y-13076D01*
X64312Y-12969D01*
X64509Y-12867D01*
X64708Y-12769D01*
X64911Y-12677D01*
X65115Y-12589D01*
X65321Y-12507D01*
X65529Y-12429D01*
X65740Y-12357D01*
X65951Y-12290D01*
X66165Y-12228D01*
X66380Y-12171D01*
X66596Y-12120D01*
X66813Y-12074D01*
X67032Y-12033D01*
X67251Y-11998D01*
X67472Y-11968D01*
X67692Y-11944D01*
X67914Y-11925D01*
X68136Y-11911D01*
X68358Y-11903D01*
X68580Y-11900D01*
X68802Y-11903D01*
X69024Y-11911D01*
X69246Y-11925D01*
X69468Y-11944D01*
X69688Y-11968D01*
X69909Y-11998D01*
X70128Y-12033D01*
X70347Y-12074D01*
X70564Y-12120D01*
X70780Y-12171D01*
X70995Y-12228D01*
X71209Y-12290D01*
X71420Y-12357D01*
X71631Y-12429D01*
X71839Y-12507D01*
X72045Y-12589D01*
X72249Y-12677D01*
X72452Y-12769D01*
X72651Y-12867D01*
X72848Y-12969D01*
X73043Y-13076D01*
X73235Y-13188D01*
X73424Y-13305D01*
X73611Y-13426D01*
X73794Y-13552D01*
X73974Y-13682D01*
X74151Y-13817D01*
X74324Y-13955D01*
X74494Y-14098D01*
X74661Y-14246D01*
X74824Y-14397D01*
X74983Y-14552D01*
X75138Y-14711D01*
X75289Y-14874D01*
X75437Y-15041D01*
X75580Y-15211D01*
X75718Y-15384D01*
X75853Y-15561D01*
X75983Y-15741D01*
X76109Y-15924D01*
X76230Y-16111D01*
X76347Y-16300D01*
X76459Y-16492D01*
X76566Y-16687D01*
X76668Y-16884D01*
X76766Y-17083D01*
X76858Y-17286D01*
X76946Y-17490D01*
X77028Y-17696D01*
X77106Y-17904D01*
X77178Y-18115D01*
X77245Y-18326D01*
X77307Y-18540D01*
X77364Y-18755D01*
X77415Y-18971D01*
X77461Y-19188D01*
X77502Y-19407D01*
X77537Y-19626D01*
X77567Y-19847D01*
X77591Y-20067D01*
X77610Y-20289D01*
X77624Y-20511D01*
X77632Y-20733D01*
X77635Y-20955D01*
X77632Y-21177D01*
X77624Y-21399D01*
X77610Y-21621D01*
X77591Y-21843D01*
X77567Y-22063D01*
X77537Y-22284D01*
X77502Y-22503D01*
X77461Y-22722D01*
X77415Y-22939D01*
X77364Y-23155D01*
X77307Y-23370D01*
X77245Y-23584D01*
X77178Y-23795D01*
X77106Y-24006D01*
X77028Y-24214D01*
X76946Y-24420D01*
X76858Y-24624D01*
X76766Y-24827D01*
X76668Y-25026D01*
X76566Y-25223D01*
X76459Y-25418D01*
X76347Y-25610D01*
X76230Y-25799D01*
X76109Y-25986D01*
X75983Y-26169D01*
X75853Y-26349D01*
X75718Y-26526D01*
X75580Y-26699D01*
X75437Y-26869D01*
X75289Y-27036D01*
X75138Y-27199D01*
X74983Y-27358D01*
X74824Y-27513D01*
X74661Y-27664D01*
X74494Y-27812D01*
X74324Y-27955D01*
X74151Y-28093D01*
X73974Y-28228D01*
X73794Y-28358D01*
X73611Y-28484D01*
X73424Y-28605D01*
X73235Y-28722D01*
X73043Y-28834D01*
X72848Y-28941D01*
X72651Y-29043D01*
X72452Y-29141D01*
X72249Y-29233D01*
X72045Y-29321D01*
X71839Y-29403D01*
X71631Y-29481D01*
X71420Y-29553D01*
X71209Y-29620D01*
X70995Y-29682D01*
X70780Y-29739D01*
X70564Y-29790D01*
X70347Y-29836D01*
X70128Y-29877D01*
X69909Y-29912D01*
X69688Y-29942D01*
X69468Y-29966D01*
X69246Y-29985D01*
X69024Y-29999D01*
X68802Y-30007D01*
X68580Y-30010D01*
X68358Y-30007D01*
X68136Y-29999D01*
X67914Y-29985D01*
X67692Y-29966D01*
X67472Y-29942D01*
X67251Y-29912D01*
X67032Y-29877D01*
X66813Y-29836D01*
X66596Y-29790D01*
X66380Y-29739D01*
X66165Y-29682D01*
X65951Y-29620D01*
X65740Y-29553D01*
X65529Y-29481D01*
X65321Y-29403D01*
X65115Y-29321D01*
X64911Y-29233D01*
X64708Y-29141D01*
X64509Y-29043D01*
X64312Y-28941D01*
X64117Y-28834D01*
X63925Y-28722D01*
X63736Y-28605D01*
X63549Y-28484D01*
X63366Y-28358D01*
X63186Y-28228D01*
X63009Y-28093D01*
X62836Y-27955D01*
X62666Y-27812D01*
X62499Y-27664D01*
X62336Y-27513D01*
X62177Y-27358D01*
X62022Y-27199D01*
X61871Y-27036D01*
X61723Y-26869D01*
X61580Y-26699D01*
X61442Y-26526D01*
X61307Y-26349D01*
X61177Y-26169D01*
X61051Y-25986D01*
X60930Y-25799D01*
X60813Y-25610D01*
X60701Y-25418D01*
X60594Y-25223D01*
X60492Y-25026D01*
X60394Y-24827D01*
X60302Y-24624D01*
X60214Y-24420D01*
X60132Y-24214D01*
X60054Y-24006D01*
X59982Y-23795D01*
X59915Y-23584D01*
X59853Y-23370D01*
X59796Y-23155D01*
X59745Y-22939D01*
X59699Y-22722D01*
X59658Y-22503D01*
X59623Y-22284D01*
X59593Y-22063D01*
X59569Y-21843D01*
X59550Y-21621D01*
X59536Y-21399D01*
X59528Y-21177D01*
X59525Y-20955D01*
D15*
X68580Y-20955D03*
M02*
